<svg xmlns="http://www.w3.org/2000/svg" viewBox="20 59.987993157243636 535 455.02401368551284"> <g transform="rotate(0 287.5 219.35942658115667)"><svg xmlns="http://www.w3.org/2000/svg" xmlns:xlink="http://www.w3.org/1999/xlink" version="1.1" id="Capa_1" x="90" y="129.98799315724364" viewBox="109.29998779296875 188.8000030517578 519.1000366210938 234.8999786376953" xml:space="preserve" height="178.74286684782606" width="395" preserveAspectRatio="xMinYMin" enable-background="new 0 0 841.9 595.3" style="overflow: visible;"><g id="Nuevo_s0mbolo" style=""></g><polygon points="624.6,246.1 543.8,188.8 443.9,235.1 524.7,292.4 " style="fill: #3e3e3e; fill-opacity: 1;"></polygon><polygon points="436.6,244.4 417.5,347.9 498.3,405.1 517.4,301.6 " style="fill: #ff5300; fill-opacity: 1;"></polygon><polygon points="528.5,302.3 509.4,405.8 609.3,359.5 628.4,256 " style="fill: #3e3e3e; fill-opacity: 1;"></polygon><path class="st15" d="M398.7,357.4c-31.8,4.4-63.8,11.2-96,20.4c31.6-3.6,62.9-6.6,93.7-8.8L398.7,357.4z" style="fill-rule: evenodd; clip-rule: evenodd; fill: #3e3e3e; fill-opacity: 1;"></path><path class="st15" d="M408.7,307.1c-53.6,15-159,58.3-222.5,97.9c78.9-30.8,150.7-51.5,215.2-62l0.4-0.1L408.7,307.1z" style="fill-rule: evenodd; clip-rule: evenodd; fill: #3e3e3e; fill-opacity: 1;"></path><path class="st15" d="M420.8,244.9c-23.3,8.1-45.9,16.9-67.9,26.3c-92.4,39.5-173.6,90.3-243.6,152.5  c98.2-59.2,185.2-101.4,261-126.6c14.7-4.9,28.9-9.1,42.8-12.7L420.8,244.9z" style="fill-rule: evenodd; clip-rule: evenodd; fill: #3e3e3e; fill-opacity: 1;"></path></svg></g> <g transform="rotate(0 287.5 435.22200592722913)"><svg xmlns="http://www.w3.org/2000/svg" y="425.4320050117018" viewBox="0.9500000476837158 9.369999885559082 387 19.580001831054688" x="94" height="19.580001831054688" width="387" style="overflow: visible;"><g fill="#ff5300" fill-opacity="1" style=""><path d="M5.68 24.42L5.68 24.42Q2.93 24.42 1.25 23.72L1.25 23.72L1.25 21.60Q2.20 21.96 3.29 22.18Q4.38 22.40 5.46 22.40L5.46 22.40Q7.15 22.40 8.00 22Q8.84 21.60 8.84 20.42L8.84 20.42Q8.84 19.69 8.49 19.25Q8.14 18.81 7.33 18.49Q6.51 18.17 5.08 17.82L5.08 17.82Q2.79 17.23 1.87 16.31Q0.95 15.40 0.95 13.79L0.95 13.79Q0.95 11.92 2.31 10.87Q3.67 9.81 6.38 9.81L6.38 9.81Q7.61 9.81 8.70 9.99Q9.79 10.16 10.41 10.38L10.41 10.38L10.41 12.50Q8.73 11.86 6.71 11.86L6.71 11.86Q5.13 11.86 4.25 12.28Q3.37 12.69 3.37 13.79L3.37 13.79Q3.37 14.43 3.67 14.83Q3.98 15.22 4.74 15.51Q5.50 15.80 6.84 16.15L6.84 16.15Q8.58 16.59 9.54 17.19Q10.49 17.80 10.88 18.60Q11.26 19.40 11.26 20.42L11.26 20.42Q11.26 22.29 9.88 23.35Q8.49 24.42 5.68 24.42ZM25.01 24.20L22.62 24.20L22.62 9.37L25.01 9.37L25.01 14.78Q25.70 14.23 26.64 13.89Q27.59 13.55 28.78 13.55L28.78 13.55Q30.76 13.55 31.70 14.50Q32.65 15.44 32.65 17.45L32.65 17.45L32.65 24.20L30.27 24.20L30.27 17.56Q30.27 16.35 29.75 15.86Q29.24 15.38 27.96 15.38L27.96 15.38Q27.17 15.38 26.36 15.72Q25.54 16.06 25.01 16.61L25.01 16.61L25.01 24.20ZM49.13 24.42L49.13 24.42Q46.31 24.42 45.00 23.01Q43.69 21.60 43.69 18.99L43.69 18.99Q43.69 16.37 45.01 14.96Q46.33 13.55 49.13 13.55L49.13 13.55Q51.94 13.55 53.26 14.96Q54.58 16.37 54.58 18.99L54.58 18.99Q54.58 21.60 53.27 23.01Q51.96 24.42 49.13 24.42ZM49.13 22.40L49.13 22.40Q50.78 22.40 51.47 21.59Q52.16 20.79 52.16 18.99L52.16 18.99Q52.16 17.18 51.47 16.39Q50.78 15.60 49.13 15.60L49.13 15.60Q47.50 15.60 46.80 16.39Q46.11 17.18 46.11 18.99L46.11 18.99Q46.11 20.79 46.80 21.59Q47.50 22.40 49.13 22.40ZM68.33 28.95L65.93 28.95L65.93 13.77L68.00 13.77L68.13 14.81Q68.84 14.17 69.67 13.86Q70.51 13.55 71.65 13.55L71.65 13.55Q73.90 13.55 75.15 14.77Q76.41 15.99 76.41 18.81L76.41 18.81Q76.41 21.63 75.11 23.02Q73.81 24.42 71.57 24.42L71.57 24.42Q69.67 24.42 68.33 23.54L68.33 23.54L68.33 28.95ZM70.95 22.62L70.95 22.62Q73.99 22.62 73.99 18.79L73.99 18.79Q73.99 16.94 73.30 16.16Q72.62 15.38 71.02 15.38L71.02 15.38Q69.41 15.38 68.33 16.48L68.33 16.48L68.33 21.69Q68.84 22.11 69.46 22.36Q70.09 22.62 70.95 22.62ZM107.89 24.42L107.89 24.42Q104.96 24.42 103.34 23.01Q101.73 21.60 101.73 18.94L101.73 18.94L101.73 10.03L104.13 10.03L104.13 18.85Q104.13 20.64 105.10 21.52Q106.08 22.40 107.89 22.40L107.89 22.40Q109.67 22.40 110.65 21.52Q111.63 20.64 111.63 18.85L111.63 18.85L111.63 10.03L114.00 10.03L114.00 18.94Q114.00 21.60 112.40 23.01Q110.79 24.42 107.89 24.42ZM129.98 24.42L129.98 24.42Q127.23 24.42 125.55 23.72L125.55 23.72L125.55 21.60Q126.50 21.96 127.59 22.18Q128.68 22.40 129.76 22.40L129.76 22.40Q131.45 22.40 132.30 22Q133.14 21.60 133.14 20.42L133.14 20.42Q133.14 19.69 132.79 19.25Q132.44 18.81 131.63 18.49Q130.81 18.17 129.38 17.82L129.38 17.82Q127.09 17.23 126.17 16.31Q125.25 15.40 125.25 13.79L125.25 13.79Q125.25 11.92 126.61 10.87Q127.97 9.81 130.68 9.81L130.68 9.81Q131.91 9.81 133.00 9.99Q134.09 10.16 134.71 10.38L134.71 10.38L134.71 12.50Q133.03 11.86 131.01 11.86L131.01 11.86Q129.43 11.86 128.55 12.28Q127.67 12.69 127.67 13.79L127.67 13.79Q127.67 14.43 127.97 14.83Q128.28 15.22 129.04 15.51Q129.80 15.80 131.14 16.15L131.14 16.15Q132.88 16.59 133.84 17.19Q134.79 17.80 135.18 18.60Q135.56 19.40 135.56 20.42L135.56 20.42Q135.56 22.29 134.18 23.35Q132.79 24.42 129.98 24.42ZM147.77 24.20L145.29 24.20L150.70 10.03L153.38 10.03L158.75 24.20L156.29 24.20L154.88 20.55L149.18 20.55L147.77 24.20ZM152.02 12.21L149.56 18.70L154.48 18.70L152.02 12.21ZM170.98 26.84L169.25 26.84L169.91 22.68L172.00 22.68L170.98 26.84ZM201.72 24.42L201.72 24.42Q198.97 24.42 197.30 23.72L197.30 23.72L197.30 21.60Q198.24 21.96 199.33 22.18Q200.42 22.40 201.50 22.40L201.50 22.40Q203.19 22.40 204.04 22Q204.89 21.60 204.89 20.42L204.89 20.42Q204.89 19.69 204.53 19.25Q204.18 18.81 203.37 18.49Q202.55 18.17 201.12 17.82L201.12 17.82Q198.84 17.23 197.91 16.31Q196.99 15.40 196.99 13.79L196.99 13.79Q196.99 11.92 198.35 10.87Q199.72 9.81 202.42 9.81L202.42 9.81Q203.65 9.81 204.74 9.99Q205.83 10.16 206.45 10.38L206.45 10.38L206.45 12.50Q204.78 11.86 202.75 11.86L202.75 11.86Q201.17 11.86 200.29 12.28Q199.41 12.69 199.41 13.79L199.41 13.79Q199.41 14.43 199.72 14.83Q200.02 15.22 200.78 15.51Q201.54 15.80 202.88 16.15L202.88 16.15Q204.62 16.59 205.58 17.19Q206.54 17.80 206.92 18.60Q207.31 19.40 207.31 20.42L207.31 20.42Q207.31 22.29 205.92 23.35Q204.53 24.42 201.72 24.42ZM221.06 24.20L218.66 24.20L218.66 9.37L221.06 9.37L221.06 14.78Q221.74 14.23 222.68 13.89Q223.63 13.55 224.82 13.55L224.82 13.55Q226.80 13.55 227.74 14.50Q228.69 15.44 228.69 17.45L228.69 17.45L228.69 24.20L226.31 24.20L226.31 17.56Q226.31 16.35 225.80 15.86Q225.28 15.38 224.00 15.38L224.00 15.38Q223.21 15.38 222.40 15.72Q221.58 16.06 221.06 16.61L221.06 16.61L221.06 24.20ZM243.89 11.59L241.27 11.59L241.27 9.61L243.89 9.61L243.89 11.59ZM243.87 24.20L241.47 24.20L241.47 15.60L239.89 15.60L240.11 13.77L243.87 13.77L243.87 24.20ZM258.08 28.95L255.68 28.95L255.68 13.77L257.75 13.77L257.88 14.81Q258.59 14.17 259.42 13.86Q260.26 13.55 261.40 13.55L261.40 13.55Q263.65 13.55 264.90 14.77Q266.16 15.99 266.16 18.81L266.16 18.81Q266.16 21.63 264.86 23.02Q263.56 24.42 261.32 24.42L261.32 24.42Q259.42 24.42 258.08 23.54L258.08 23.54L258.08 28.95ZM260.70 22.62L260.70 22.62Q263.74 22.62 263.74 18.79L263.74 18.79Q263.74 16.94 263.05 16.16Q262.37 15.38 260.77 15.38L260.77 15.38Q259.16 15.38 258.08 16.48L258.08 16.48L258.08 21.69Q258.59 22.11 259.22 22.36Q259.84 22.62 260.70 22.62ZM298.19 24.42L298.19 24.42Q294.69 24.42 292.92 22.53Q291.15 20.64 291.15 17.40L291.15 17.40Q291.15 15.07 291.92 13.37Q292.69 11.66 294.26 10.74Q295.83 9.81 298.25 9.81L298.25 9.81Q299.51 9.81 300.53 9.98Q301.55 10.14 302.46 10.45L302.46 10.45L302.46 12.52Q300.65 11.86 298.45 11.86L298.45 11.86Q295.75 11.86 294.66 13.29Q293.57 14.72 293.57 17.40L293.57 17.40Q293.57 19.84 294.71 21.12Q295.86 22.40 298.25 22.40L298.25 22.40Q300.15 22.40 301.31 21.96L301.31 21.96L301.31 18.00L297.77 18.00L297.77 16.43L303.36 16.43L303.36 23.25Q302.68 23.69 301.41 24.06Q300.15 24.42 298.19 24.42ZM317.11 24.20L314.71 24.20L314.71 9.37L317.11 9.37L317.11 14.78Q317.79 14.23 318.74 13.89Q319.68 13.55 320.87 13.55L320.87 13.55Q322.85 13.55 323.80 14.50Q324.74 15.44 324.74 17.45L324.74 17.45L324.74 24.20L322.37 24.20L322.37 17.56Q322.37 16.35 321.85 15.86Q321.33 15.38 320.06 15.38L320.06 15.38Q319.26 15.38 318.45 15.72Q317.64 16.06 317.11 16.61L317.11 16.61L317.11 24.20ZM339.37 24.42L339.37 24.42Q338.38 24.42 337.54 24.07Q336.69 23.72 336.18 23.00Q335.68 22.29 335.68 21.23L335.68 21.23Q335.68 19.73 336.70 18.82Q337.72 17.91 339.86 17.91L339.86 17.91L343.20 17.91L343.20 17.45Q343.20 16.70 342.97 16.26Q342.74 15.82 342.13 15.62Q341.53 15.42 340.36 15.42L340.36 15.42Q338.51 15.42 336.91 15.97L336.91 15.97L336.91 14.19Q337.61 13.90 338.62 13.73Q339.64 13.55 340.80 13.55L340.80 13.55Q343.09 13.55 344.29 14.48Q345.49 15.40 345.49 17.49L345.49 17.49L345.49 24.20L343.44 24.20L343.29 23.14Q342.65 23.76 341.72 24.09Q340.78 24.42 339.37 24.42ZM340.01 22.70L340.01 22.70Q341.09 22.70 341.89 22.34Q342.69 21.98 343.20 21.36L343.20 21.36L343.20 19.54L339.90 19.54Q338.84 19.54 338.37 19.94Q337.90 20.35 337.90 21.19L337.90 21.19Q337.90 22 338.45 22.35Q339.00 22.70 340.01 22.70ZM359.57 24.20L357.17 24.20L357.17 13.77L359.37 13.77L359.48 14.87Q360.18 14.32 361.16 13.94Q362.14 13.55 363.33 13.55L363.33 13.55Q365.35 13.55 366.28 14.50Q367.20 15.44 367.20 17.45L367.20 17.45L367.20 24.20L364.83 24.20L364.83 17.56Q364.83 16.35 364.33 15.86Q363.84 15.38 362.47 15.38L362.47 15.38Q361.66 15.38 360.88 15.71Q360.10 16.04 359.57 16.57L359.57 16.57L359.57 24.20ZM381.83 24.42L381.83 24.42Q380.84 24.42 380.00 24.07Q379.15 23.72 378.64 23.00Q378.14 22.29 378.14 21.23L378.14 21.23Q378.14 19.73 379.16 18.82Q380.18 17.91 382.32 17.91L382.32 17.91L385.66 17.91L385.66 17.45Q385.66 16.70 385.43 16.26Q385.20 15.82 384.59 15.62Q383.99 15.42 382.82 15.42L382.82 15.42Q380.97 15.42 379.37 15.97L379.37 15.97L379.37 14.19Q380.07 13.90 381.08 13.73Q382.10 13.55 383.26 13.55L383.26 13.55Q385.55 13.55 386.75 14.48Q387.95 15.40 387.95 17.49L387.95 17.49L387.95 24.20L385.90 24.20L385.75 23.14Q385.11 23.76 384.18 24.09Q383.24 24.42 381.83 24.42ZM382.47 22.70L382.47 22.70Q383.55 22.70 384.35 22.34Q385.15 21.98 385.66 21.36L385.66 21.36L385.66 19.54L382.36 19.54Q381.30 19.54 380.83 19.94Q380.36 20.35 380.36 21.19L380.36 21.19Q380.36 22 380.91 22.35Q381.46 22.70 382.47 22.70Z" transform="translate(0, 0)"></path></g></svg></g> <g transform="rotate(0 287.5 370.75314778848514)"><svg xmlns="http://www.w3.org/2000/svg" y="333.9631468729578" viewBox="6.019999980926514 30.90999984741211 395 73.58000183105469" x="90" height="73.58000183105469" width="395" style="overflow: visible;"><g fill="#3e3e3e" fill-opacity="1" style=""><path d="M30.08 104.12Q24.34 104.12 19.44 103.93Q14.53 103.75 6.02 103.10L6.02 103.10L6.02 39.33L37.85 39.33Q44.61 39.33 50.02 41.23Q55.44 43.13 58.49 46.65Q61.55 50.16 61.55 54.79L61.55 54.79Q61.55 60.53 59.05 63.81Q56.55 67.10 51.46 68.39L51.46 68.39Q64.42 70.43 64.42 83.67L64.42 83.67Q64.42 92.83 56.04 98.47Q47.66 104.12 30.08 104.12L30.08 104.12ZM26.65 64.51L33.97 64.51Q37.58 64.51 39.94 62.75Q42.30 60.99 42.30 58.21L42.30 58.21Q42.30 51.64 34.15 51.64L34.15 51.64L26.65 51.64L26.65 64.51ZM33.60 89.59Q38.69 89.59 41.42 87.69Q44.15 85.79 44.15 82.37L44.15 82.37Q44.15 78.67 41.65 76.68Q39.15 74.69 34.52 74.69L34.52 74.69L26.56 74.69L26.56 89.31Q30.73 89.59 33.60 89.59L33.60 89.59ZM91.07 103.75Q83.30 103.75 77.23 100.69Q71.17 97.64 67.79 92.23Q64.42 86.81 64.42 79.78L64.42 79.78Q64.42 72.74 67.84 67.33Q71.26 61.92 77.33 58.95Q83.39 55.99 91.16 55.99L91.16 55.99Q99.03 55.99 105.09 59.00Q111.15 62.01 114.48 67.38Q117.82 72.74 117.82 79.78L117.82 79.78Q117.82 86.90 114.44 92.32Q111.06 97.73 105.00 100.74Q98.94 103.75 91.07 103.75L91.07 103.75ZM91.25 89.87Q95.05 89.87 97.50 87.04Q99.95 84.22 99.95 79.78L99.95 79.78Q99.95 75.34 97.50 72.51Q95.05 69.69 91.25 69.69L91.25 69.69Q87.46 69.69 85.01 72.51Q82.56 75.34 82.56 79.78L82.56 79.78Q82.56 84.22 85.01 87.04Q87.46 89.87 91.25 89.87L91.25 89.87ZM113.93 103.01L128.00 78.95L114.86 56.64L134.38 56.64L139.57 67.56L144.93 56.64L163.91 56.64L150.95 78.95L164.83 103.01L145.86 103.01L139.57 91.16L133.46 103.01L113.93 103.01ZM195.28 104.49Q185.93 104.49 178.44 100.00Q170.94 95.51 166.68 87.74Q162.43 79.96 162.43 70.62L162.43 70.62Q162.43 61.64 166.73 54.14Q171.03 46.65 178.72 42.30Q186.40 37.95 196.21 37.95L196.21 37.95Q201.58 37.95 206.62 39.15Q211.66 40.35 215.74 42.57L215.74 42.57L209.63 56.92Q203.33 54.33 197.87 54.33L197.87 54.33Q190.75 54.33 186.86 58.91Q182.97 63.49 182.97 70.89L182.97 70.89Q182.97 75.71 184.73 79.55Q186.49 83.39 189.68 85.61Q192.88 87.83 196.95 87.83L196.95 87.83Q199.17 87.83 200.65 87.46L200.65 87.46L200.65 72.56L216.66 70.71L216.66 99.68Q206.20 104.49 195.28 104.49L195.28 104.49ZM236.93 103.75Q229.16 103.75 224.81 98.75Q220.46 93.75 220.46 85.15L220.46 85.15L220.46 56.64L240.08 56.64L240.08 84.31Q240.08 86.44 241.23 87.60Q242.39 88.76 244.24 88.76L244.24 88.76Q246.09 88.76 248.04 87.65L248.04 87.65L249.05 100.51Q247.02 102.08 243.73 102.92Q240.45 103.75 236.93 103.75L236.93 103.75ZM230.27 49.70Q225.92 49.70 222.91 46.97Q219.90 44.24 219.90 40.26L219.90 40.26Q219.90 36.28 223.05 33.60Q226.19 30.91 230.27 30.91L230.27 30.91Q234.52 30.91 237.62 33.69Q240.72 36.46 240.72 40.26L240.72 40.26Q240.72 44.33 237.58 47.02Q234.43 49.70 230.27 49.70L230.27 49.70ZM270.25 103.75Q264.23 103.75 259.00 100.56Q253.77 97.36 250.63 91.86Q247.48 86.35 247.48 79.59L247.48 79.59Q247.48 72.93 250.63 67.52Q253.77 62.10 259.05 59.05Q264.32 55.99 270.25 55.99L270.25 55.99Q275.06 55.99 279.18 58.68Q283.30 61.36 285.43 66.73L285.43 66.73L285.43 55.99L304.86 55.99L304.86 103.01L285.43 103.01L285.43 94.40Q280.80 103.75 270.25 103.75L270.25 103.75ZM276.26 89.13Q279.97 89.13 282.60 86.49Q285.24 83.85 285.43 80.24L285.43 80.24L285.43 79.50Q285.24 75.80 282.51 73.21Q279.78 70.62 276.26 70.62L276.26 70.62Q272.38 70.62 269.65 73.35Q266.92 76.08 266.92 79.87L266.92 79.87Q266.92 83.76 269.69 86.44Q272.47 89.13 276.26 89.13L276.26 89.13ZM309.58 103.01L309.58 57.29L328.18 57.29L328.18 66.73Q333.55 55.99 345.21 55.99L345.21 55.99Q354.10 55.99 359.14 62.33Q364.19 68.67 364.19 79.87L364.19 79.87L364.19 103.01L344.75 103.01L344.75 77.93Q344.75 73.95 343.04 71.82Q341.33 69.69 338.27 69.69L338.27 69.69Q336.05 69.69 333.92 71.13Q331.79 72.56 330.45 75.24Q329.11 77.93 329.11 81.35L329.11 81.35L329.11 103.01L309.58 103.01ZM387.97 103.75Q379.83 103.75 375.29 99.08Q370.76 94.40 370.76 86.16L370.76 86.16L370.76 68.12L364.83 68.12L364.83 56.64L372.15 56.64L380.75 39.15L390.10 39.15L390.10 56.64L400.84 56.64L400.84 68.12L390.10 68.12L390.10 83.85Q390.10 86.16 391.58 87.46Q393.06 88.76 395.75 88.76L395.75 88.76Q398.24 88.76 400.28 87.65L400.28 87.65L401.02 100.60Q398.71 101.99 395.05 102.87Q391.40 103.75 387.97 103.75L387.97 103.75Z" transform="translate(0, 0)"></path></g></svg></g></svg>